# xmcd CD database file
#
# Track frame offsets:
#	150
#	10465
#	25310
#	36382
#	53402
#	64612
#	78037
#	87517
#	100122
#	114902
#	126620
#	138172
#	152602
#	165135
#	176292
#	188100
#	199870
#	205782
#	215940
#	230515
#
# Disc length: 3201 seconds
#
# Revision: 0
# Processed by: cddbd v1.4PL0 Copyright (c) Steve Scherf et al.
# Submitted via: CDex 1.50
#
DISCID=060c7f14
DTITLE=60 Country Greats - Boots and Saddles
DYEAR=1996
DGENRE=Country
TTITLE0=FARON YOUNG_Hello Walls
TTITLE1=LYNN ANDERSON_We've Only Just
TTITLE2=DAVID FRIZZELL_It´l Be Love by The Morning
TTITLE3=TANYA TUCKER_The Night They Drove Ole Dixie Down
TTITLE4=FARON YOUNG_Country Girl
TTITLE5=DAVID HOUSTON_Almost Persuaded
TTITLE6=CHARLIE PRIDE_Kiss An Angel Good Morning
TTITLE7=LYNN ANDERSON_It Must Be Love
TTITLE8=DON GIBSON_Woman (Sensuous Woman)
TTITLE9=MOE BANDY_Cheatin' Situation
TTITLE10=DELL REEVES_Be Glad
TTITLE11=LORETTA LYNN_Coal Miner's Daughter
TTITLE12=CHARLIE PRIDE_Help Me Make It Through The Night
TTITLE13=DON GIBSON_Country Green
TTITLE14=DONNA FARGO_Funny Face
TTITLE15=DELL REEVES_Girl on The Bill Board
TTITLE16=TAMMY WYNETTE_Welcome To My World
TTITLE17=LORETTA YOUNG_You're Looking At Country
TTITLE18=DAVID FRIZZELL_I Love you in a Thousand Ways
TTITLE19=SKEETER DAVIS_I Can't Believe That It's All Over Baby
EXTD=YEAR: 1996
EXTT0=
EXTT1=
EXTT2=
EXTT3=
EXTT4=
EXTT5=
EXTT6=
EXTT7=
EXTT8=
EXTT9=
EXTT10=
EXTT11=
EXTT12=
EXTT13=
EXTT14=
EXTT15=
EXTT16=
EXTT17=
EXTT18=
EXTT19=
PLAYORDER=
